<svg width="32" height="32" viewBox="0 0 32 32" fill="none" xmlns="http://www.w3.org/2000/svg">
<path d="M0.0246582 15.5431L7.33351 9.14307L21.9512 10.0574L22.8648 24.6859L16.4696 32.0002C16.4696 32.0002 16.4705 26.5154 10.9879 21.0288C5.50538 15.5422 0.0246582 15.5431 0.0246582 15.5431Z" fill="#413E70"/>
<path d="M1.78224e-05 32C1.78224e-05 32 -0.032872 24.7049 2.72713 21.9428C5.48714 19.1808 12.8152 19.371 12.8152 19.371C12.8152 19.371 12.8143 26.5143 10.0734 29.2571C7.33262 32 1.78224e-05 32 1.78224e-05 32Z" fill="#FFAC33"/>
<path d="M7.33265 28.3426C9.35093 28.3426 10.9871 26.7052 10.9871 24.6855C10.9871 22.6657 9.35093 21.0283 7.33265 21.0283C5.31436 21.0283 3.67822 22.6657 3.67822 24.6855C3.67822 26.7052 5.31436 28.3426 7.33265 28.3426Z" fill="#FFCC4D"/>
<path d="M32.0001 0C32.0001 0 22.8641 0 11.9008 9.14285C6.41916 13.7143 6.41916 21.9429 8.24638 23.7714C10.0736 25.6 18.296 25.6 22.8641 20.1143C32.0001 9.14285 32.0001 0 32.0001 0Z" fill="#E3A052"/>
<path d="M23.7776 4.57129C22.2948 4.57129 21.0249 5.45906 20.4512 6.729C20.9098 6.52146 21.415 6.39986 21.9504 6.39986C23.9686 6.39986 25.6048 8.03734 25.6048 10.057C25.6048 10.5928 25.4833 11.0984 25.2768 11.5564C26.5458 10.9832 27.432 9.71232 27.432 8.22843C27.432 6.20877 25.7958 4.57129 23.7776 4.57129V4.57129Z" fill="#413E70"/>
<path d="M6.42017 25.6001C6.42017 25.6001 6.42017 21.943 7.33377 21.0287C8.24738 20.1144 19.2116 10.9725 20.1243 11.8858C21.037 12.7992 11.9009 23.7715 10.9873 24.6858C10.0737 25.6001 6.42017 25.6001 6.42017 25.6001Z" fill="#413E70"/>
</svg>
