<svg width="24" height="24" viewBox="0 0 24 24" fill="none" xmlns="http://www.w3.org/2000/svg">
<path d="M14.122 9.87999C15.293 11.051 15.293 12.952 14.122 14.125C12.951 15.296 11.05 15.296 9.87703 14.125C8.70603 12.954 8.70603 11.053 9.87703 9.87999C11.05 8.70699 12.95 8.70699 14.122 9.87999Z" stroke="#9C98A6" stroke-width="1.5" stroke-linecap="round" stroke-linejoin="round"/>
<path d="M3 12C3 11.341 3.152 10.689 3.446 10.088C4.961 6.991 8.309 5 12 5C15.691 5 19.039 6.991 20.554 10.088C20.848 10.689 21 11.341 21 12C21 12.659 20.848 13.311 20.554 13.912C19.039 17.009 15.691 19 12 19C8.309 19 4.961 17.009 3.446 13.912C3.152 13.311 3 12.659 3 12V12Z" stroke="#9C98A6" stroke-width="1.5" stroke-linecap="round" stroke-linejoin="round"/>
</svg>
