<svg width="1114" height="397" viewBox="0 0 1114 397" fill="none" xmlns="http://www.w3.org/2000/svg">
<path d="M926.301 137.141C926.301 141.147 922.875 144.395 918.65 144.395C914.425 144.395 911 141.147 911 137.141C911 133.135 914.425 129.887 918.65 129.887C922.862 129.887 926.301 133.135 926.301 137.141Z" stroke="#E3A052" stroke-width="3" stroke-miterlimit="10" stroke-linecap="round" stroke-linejoin="round"/>
<path d="M924.182 142.145L929.579 147.275" stroke="#E3A052" stroke-width="3" stroke-miterlimit="10" stroke-linecap="round" stroke-linejoin="round"/>
<path d="M372 94.8525L380.049 102.484" stroke="#E3A052" stroke-width="3" stroke-miterlimit="10" stroke-linecap="round" stroke-linejoin="round"/>
<path d="M380.049 94.8525L372 102.484" stroke="#E3A052" stroke-width="3" stroke-miterlimit="10" stroke-linecap="round" stroke-linejoin="round"/>
<path d="M1104 296.537L1112.05 304.168" stroke="#E3A052" stroke-width="3" stroke-miterlimit="10" stroke-linecap="round" stroke-linejoin="round"/>
<path d="M1112.05 296.537L1104 304.168" stroke="#E3A052" stroke-width="3" stroke-miterlimit="10" stroke-linecap="round" stroke-linejoin="round"/>
<path d="M73 46.562L81.0488 54.1936" stroke="#E3A052" stroke-width="3" stroke-miterlimit="10" stroke-linecap="round" stroke-linejoin="round"/>
<path d="M81.0488 46.562L73 54.1936" stroke="#E3A052" stroke-width="3" stroke-miterlimit="10" stroke-linecap="round" stroke-linejoin="round"/>
<path d="M823 268.13L831.049 275.762" stroke="#E3A052" stroke-width="3" stroke-miterlimit="10" stroke-linecap="round" stroke-linejoin="round"/>
<path d="M831.049 268.13L823 275.762" stroke="#E3A052" stroke-width="3" stroke-miterlimit="10" stroke-linecap="round" stroke-linejoin="round"/>
<path d="M331.389 312.047V322.839" stroke="#E3A052" stroke-width="3" stroke-miterlimit="10" stroke-linecap="round" stroke-linejoin="round"/>
<path d="M337.095 317.442H325.699" stroke="#E3A052" stroke-width="3" stroke-miterlimit="10" stroke-linecap="round" stroke-linejoin="round"/>
<path d="M202.835 170.533C202.835 174.148 199.742 177.092 195.917 177.092C192.105 177.092 189 174.16 189 170.533C189 166.919 192.092 163.975 195.917 163.975C199.742 163.987 202.835 166.919 202.835 170.533Z" stroke="#E3A052" stroke-width="3" stroke-miterlimit="10" stroke-linecap="round" stroke-linejoin="round"/>
<path d="M15.8346 296.467C15.8346 300.082 12.7424 303.026 8.91728 303.026C5.10545 303.026 2 300.094 2 296.467C2 292.853 5.09212 289.909 8.91728 289.909C12.7424 289.921 15.8346 292.853 15.8346 296.467Z" stroke="#E3A052" stroke-width="3" stroke-miterlimit="10" stroke-linecap="round" stroke-linejoin="round"/>
<path d="M1082.83 69.2179C1082.83 72.8322 1079.74 75.7767 1075.92 75.7767C1072.11 75.7767 1069 72.8449 1069 69.2179C1069 65.6037 1072.09 62.6592 1075.92 62.6592C1079.74 62.6718 1082.83 65.6037 1082.83 69.2179Z" stroke="#E3A052" stroke-width="3" stroke-miterlimit="10" stroke-linecap="round" stroke-linejoin="round"/>
<path d="M670.835 8.61787C670.835 12.2321 667.742 15.1766 663.917 15.1766C660.105 15.1766 657 12.2448 657 8.61787C657 5.00359 660.092 2.05908 663.917 2.05908C667.742 2.07172 670.835 5.00359 670.835 8.61787Z" stroke="#E3A052" stroke-width="3" stroke-miterlimit="10" stroke-linecap="round" stroke-linejoin="round"/>
<path d="M716.289 388.11C716.289 391.724 713.197 394.668 709.372 394.668C705.56 394.668 702.455 391.736 702.455 388.11C702.455 384.495 705.547 381.551 709.372 381.551C713.197 381.563 716.289 384.495 716.289 388.11Z" stroke="#E3A052" stroke-width="3" stroke-miterlimit="10" stroke-linecap="round" stroke-linejoin="round"/>
<path d="M114.506 265.307C115.889 265.307 117.011 264.243 117.011 262.932C117.011 261.62 115.889 260.556 114.506 260.556C113.122 260.556 112 261.62 112 262.932C112 264.243 113.122 265.307 114.506 265.307Z" fill="#9871F5"/>
<path d="M132.005 265.306C133.389 265.306 134.51 264.243 134.51 262.931C134.51 261.619 133.389 260.556 132.005 260.556C130.621 260.556 129.5 261.619 129.5 262.931C129.5 264.243 130.621 265.306 132.005 265.306Z" fill="#9871F5"/>
<path d="M149.492 265.306C150.875 265.306 151.997 264.243 151.997 262.931C151.997 261.619 150.875 260.556 149.492 260.556C148.108 260.556 146.986 261.619 146.986 262.931C146.986 264.243 148.108 265.306 149.492 265.306Z" fill="#9871F5"/>
<path d="M166.992 265.306C168.375 265.306 169.497 264.243 169.497 262.931C169.497 261.619 168.375 260.556 166.992 260.556C165.608 260.556 164.486 261.619 164.486 262.931C164.486 264.243 165.608 265.306 166.992 265.306Z" fill="#9871F5"/>
<path d="M184.478 265.306C185.862 265.306 186.983 264.243 186.983 262.931C186.983 261.619 185.862 260.556 184.478 260.556C183.094 260.556 181.973 261.619 181.973 262.931C181.973 264.243 183.094 265.306 184.478 265.306Z" fill="#9871F5"/>
<path d="M201.978 265.306C203.361 265.306 204.483 264.243 204.483 262.931C204.483 261.619 203.361 260.556 201.978 260.556C200.594 260.556 199.473 261.619 199.473 262.931C199.473 264.243 200.594 265.306 201.978 265.306Z" fill="#9871F5"/>
<path d="M114.505 281.887C115.889 281.887 117.01 280.823 117.01 279.512C117.01 278.2 115.889 277.136 114.505 277.136C113.122 277.136 112 278.2 112 279.512C112 280.823 113.122 281.887 114.505 281.887Z" fill="#9871F5"/>
<path d="M132.005 281.887C133.389 281.887 134.51 280.823 134.51 279.512C134.51 278.2 133.389 277.136 132.005 277.136C130.621 277.136 129.5 278.2 129.5 279.512C129.5 280.823 130.621 281.887 132.005 281.887Z" fill="#9871F5"/>
<path d="M149.492 281.887C150.876 281.887 151.997 280.823 151.997 279.512C151.997 278.2 150.876 277.136 149.492 277.136C148.108 277.136 146.987 278.2 146.987 279.512C146.987 280.823 148.108 281.887 149.492 281.887Z" fill="#9871F5"/>
<path d="M166.992 281.887C168.375 281.887 169.497 280.823 169.497 279.512C169.497 278.2 168.375 277.136 166.992 277.136C165.608 277.136 164.486 278.2 164.486 279.512C164.486 280.823 165.608 281.887 166.992 281.887Z" fill="#9871F5"/>
<path d="M184.478 281.887C185.862 281.887 186.983 280.823 186.983 279.512C186.983 278.2 185.862 277.136 184.478 277.136C183.094 277.136 181.973 278.2 181.973 279.512C181.973 280.823 183.094 281.887 184.478 281.887Z" fill="#9871F5"/>
<path d="M201.978 281.887C203.361 281.887 204.483 280.823 204.483 279.512C204.483 278.2 203.361 277.136 201.978 277.136C200.594 277.136 199.473 278.2 199.473 279.512C199.473 280.823 200.594 281.887 201.978 281.887Z" fill="#9871F5"/>
<path d="M114.505 298.48C115.889 298.48 117.01 297.416 117.01 296.104C117.01 294.793 115.889 293.729 114.505 293.729C113.122 293.729 112 294.793 112 296.104C112 297.416 113.122 298.48 114.505 298.48Z" fill="#9871F5"/>
<path d="M132.005 298.48C133.389 298.48 134.51 297.416 134.51 296.104C134.51 294.793 133.389 293.729 132.005 293.729C130.621 293.729 129.5 294.793 129.5 296.104C129.5 297.416 130.621 298.48 132.005 298.48Z" fill="#9871F5"/>
<path d="M149.492 298.48C150.876 298.48 151.997 297.416 151.997 296.104C151.997 294.793 150.876 293.729 149.492 293.729C148.108 293.729 146.987 294.793 146.987 296.104C146.987 297.416 148.108 298.48 149.492 298.48Z" fill="#9871F5"/>
<path d="M166.992 298.48C168.375 298.48 169.497 297.416 169.497 296.104C169.497 294.793 168.375 293.729 166.992 293.729C165.608 293.729 164.486 294.793 164.486 296.104C164.486 297.416 165.608 298.48 166.992 298.48Z" fill="#9871F5"/>
<path d="M184.478 298.48C185.862 298.48 186.983 297.416 186.983 296.104C186.983 294.793 185.862 293.729 184.478 293.729C183.094 293.729 181.973 294.793 181.973 296.104C181.973 297.416 183.094 298.48 184.478 298.48Z" fill="#9871F5"/>
<path d="M201.978 298.48C203.361 298.48 204.483 297.416 204.483 296.104C204.483 294.793 203.361 293.729 201.978 293.729C200.594 293.729 199.473 294.793 199.473 296.104C199.473 297.416 200.594 298.48 201.978 298.48Z" fill="#9871F5"/>
<path d="M114.505 315.059C115.889 315.059 117.01 313.996 117.01 312.684C117.01 311.372 115.889 310.309 114.505 310.309C113.122 310.309 112 311.372 112 312.684C112 313.996 113.122 315.059 114.505 315.059Z" fill="#9871F5"/>
<path d="M132.005 315.059C133.389 315.059 134.51 313.996 134.51 312.684C134.51 311.372 133.389 310.309 132.005 310.309C130.621 310.309 129.5 311.372 129.5 312.684C129.5 313.996 130.621 315.059 132.005 315.059Z" fill="#9871F5"/>
<path d="M149.492 315.059C150.876 315.059 151.997 313.996 151.997 312.684C151.997 311.372 150.876 310.309 149.492 310.309C148.108 310.309 146.987 311.372 146.987 312.684C146.987 313.996 148.108 315.059 149.492 315.059Z" fill="#9871F5"/>
<path d="M166.992 315.059C168.375 315.059 169.497 313.996 169.497 312.684C169.497 311.372 168.375 310.309 166.992 310.309C165.608 310.309 164.486 311.372 164.486 312.684C164.486 313.996 165.608 315.059 166.992 315.059Z" fill="#9871F5"/>
<path d="M184.478 315.059C185.862 315.059 186.983 313.996 186.983 312.684C186.983 311.372 185.862 310.309 184.478 310.309C183.094 310.309 181.973 311.372 181.973 312.684C181.973 313.996 183.094 315.059 184.478 315.059Z" fill="#9871F5"/>
<path d="M201.978 315.059C203.361 315.059 204.483 313.996 204.483 312.684C204.483 311.372 203.361 310.309 201.978 310.309C200.594 310.309 199.473 311.372 199.473 312.684C199.473 313.996 200.594 315.059 201.978 315.059Z" fill="#9871F5"/>
<path d="M767.506 94.8699C768.889 94.8699 770.011 93.8064 770.011 92.4945C770.011 91.1826 768.889 90.1191 767.506 90.1191C766.122 90.1191 765 91.1826 765 92.4945C765 93.8064 766.122 94.8699 767.506 94.8699Z" fill="#9871F5"/>
<path d="M784.992 94.8694C786.376 94.8694 787.497 93.8059 787.497 92.494C787.497 91.1822 786.376 90.1187 784.992 90.1187C783.608 90.1187 782.487 91.1822 782.487 92.494C782.487 93.8059 783.608 94.8694 784.992 94.8694Z" fill="#9871F5"/>
<path d="M802.492 94.8694C803.875 94.8694 804.997 93.8059 804.997 92.494C804.997 91.1822 803.875 90.1187 802.492 90.1187C801.108 90.1187 799.986 91.1822 799.986 92.494C799.986 93.8059 801.108 94.8694 802.492 94.8694Z" fill="#9871F5"/>
<path d="M767.505 111.463C768.889 111.463 770.01 110.399 770.01 109.087C770.01 107.775 768.889 106.712 767.505 106.712C766.122 106.712 765 107.775 765 109.087C765 110.399 766.122 111.463 767.505 111.463Z" fill="#9871F5"/>
<path d="M784.992 111.463C786.376 111.463 787.497 110.399 787.497 109.087C787.497 107.775 786.376 106.712 784.992 106.712C783.608 106.712 782.487 107.775 782.487 109.087C782.487 110.399 783.608 111.463 784.992 111.463Z" fill="#9871F5"/>
<path d="M802.492 111.463C803.875 111.463 804.997 110.399 804.997 109.087C804.997 107.775 803.875 106.712 802.492 106.712C801.108 106.712 799.986 107.775 799.986 109.087C799.986 110.399 801.108 111.463 802.492 111.463Z" fill="#9871F5"/>
<path d="M328.433 10.9998C329.816 10.9998 330.938 9.93633 330.938 8.62443C330.938 7.31253 329.816 6.24902 328.433 6.24902C327.049 6.24902 325.927 7.31253 325.927 8.62443C325.927 9.93633 327.049 10.9998 328.433 10.9998Z" fill="#9871F5"/>
<path d="M345.919 10.9993C347.302 10.9993 348.424 9.93581 348.424 8.62392C348.424 7.31203 347.302 6.24854 345.919 6.24854C344.535 6.24854 343.414 7.31203 343.414 8.62392C343.414 9.93581 344.535 10.9993 345.919 10.9993Z" fill="#9871F5"/>
<path d="M363.419 10.9993C364.802 10.9993 365.924 9.93581 365.924 8.62392C365.924 7.31203 364.802 6.24854 363.419 6.24854C362.035 6.24854 360.913 7.31203 360.913 8.62392C360.913 9.93581 362.035 10.9993 363.419 10.9993Z" fill="#9871F5"/>
<path d="M328.433 27.5921C329.816 27.5921 330.938 26.5286 330.938 25.2167C330.938 23.9048 329.816 22.8413 328.433 22.8413C327.049 22.8413 325.927 23.9048 325.927 25.2167C325.927 26.5286 327.049 27.5921 328.433 27.5921Z" fill="#9871F5"/>
<path d="M345.919 27.5921C347.302 27.5921 348.424 26.5286 348.424 25.2167C348.424 23.9048 347.302 22.8413 345.919 22.8413C344.535 22.8413 343.414 23.9048 343.414 25.2167C343.414 26.5286 344.535 27.5921 345.919 27.5921Z" fill="#9871F5"/>
<path d="M363.419 27.5921C364.803 27.5921 365.924 26.5286 365.924 25.2167C365.924 23.9048 364.803 22.8413 363.419 22.8413C362.036 22.8413 360.914 23.9048 360.914 25.2167C360.914 26.5286 362.036 27.5921 363.419 27.5921Z" fill="#9871F5"/>
<path d="M1027.99 249.21C1029.37 249.21 1030.5 248.146 1030.5 246.834C1030.5 245.523 1029.37 244.459 1027.99 244.459C1026.61 244.459 1025.49 245.523 1025.49 246.834C1025.49 248.146 1026.61 249.21 1027.99 249.21Z" fill="#9871F5"/>
<path d="M1027.99 265.803C1029.38 265.803 1030.5 264.739 1030.5 263.427C1030.5 262.115 1029.38 261.052 1027.99 261.052C1026.61 261.052 1025.49 262.115 1025.49 263.427C1025.49 264.739 1026.61 265.803 1027.99 265.803Z" fill="#9871F5"/>
<path d="M1027.99 282.383C1029.38 282.383 1030.5 281.32 1030.5 280.008C1030.5 278.696 1029.38 277.632 1027.99 277.632C1026.61 277.632 1025.49 278.696 1025.49 280.008C1025.49 281.32 1026.61 282.383 1027.99 282.383Z" fill="#9871F5"/>
<path d="M1027.99 298.976C1029.38 298.976 1030.5 297.912 1030.5 296.6C1030.5 295.289 1029.38 294.225 1027.99 294.225C1026.61 294.225 1025.49 295.289 1025.49 296.6C1025.49 297.912 1026.61 298.976 1027.99 298.976Z" fill="#9871F5"/>
<path d="M1027.99 315.556C1029.38 315.556 1030.5 314.492 1030.5 313.181C1030.5 311.869 1029.38 310.805 1027.99 310.805C1026.61 310.805 1025.49 311.869 1025.49 313.181C1025.49 314.492 1026.61 315.556 1027.99 315.556Z" fill="#9871F5"/>
<path d="M1027.99 332.148C1029.38 332.148 1030.5 331.085 1030.5 329.773C1030.5 328.461 1029.38 327.397 1027.99 327.397C1026.61 327.397 1025.49 328.461 1025.49 329.773C1025.49 331.085 1026.61 332.148 1027.99 332.148Z" fill="#9871F5"/>
<path d="M1027.99 348.729C1029.38 348.729 1030.5 347.666 1030.5 346.354C1030.5 345.042 1029.38 343.979 1027.99 343.979C1026.61 343.979 1025.49 345.042 1025.49 346.354C1025.49 347.666 1026.61 348.729 1027.99 348.729Z" fill="#9871F5"/>
<path d="M1010.49 249.21C1011.88 249.21 1013 248.146 1013 246.834C1013 245.523 1011.88 244.459 1010.49 244.459C1009.11 244.459 1007.99 245.523 1007.99 246.834C1007.99 248.146 1009.11 249.21 1010.49 249.21Z" fill="#9871F5"/>
<path d="M1010.49 265.803C1011.88 265.803 1013 264.739 1013 263.427C1013 262.115 1011.88 261.052 1010.49 261.052C1009.11 261.052 1007.99 262.115 1007.99 263.427C1007.99 264.739 1009.11 265.803 1010.49 265.803Z" fill="#9871F5"/>
<path d="M1010.49 282.383C1011.88 282.383 1013 281.32 1013 280.008C1013 278.696 1011.88 277.632 1010.49 277.632C1009.11 277.632 1007.99 278.696 1007.99 280.008C1007.99 281.32 1009.11 282.383 1010.49 282.383Z" fill="#9871F5"/>
<path d="M1010.49 298.976C1011.88 298.976 1013 297.912 1013 296.6C1013 295.289 1011.88 294.225 1010.49 294.225C1009.11 294.225 1007.99 295.289 1007.99 296.6C1007.99 297.912 1009.11 298.976 1010.49 298.976Z" fill="#9871F5"/>
<path d="M1010.49 315.556C1011.88 315.556 1013 314.492 1013 313.181C1013 311.869 1011.88 310.805 1010.49 310.805C1009.11 310.805 1007.99 311.869 1007.99 313.181C1007.99 314.492 1009.11 315.556 1010.49 315.556Z" fill="#9871F5"/>
<path d="M1010.49 332.148C1011.88 332.148 1013 331.085 1013 329.773C1013 328.461 1011.88 327.397 1010.49 327.397C1009.11 327.397 1007.99 328.461 1007.99 329.773C1007.99 331.085 1009.11 332.148 1010.49 332.148Z" fill="#9871F5"/>
<path d="M1010.49 348.729C1011.88 348.729 1013 347.666 1013 346.354C1013 345.042 1011.88 343.979 1010.49 343.979C1009.11 343.979 1007.99 345.042 1007.99 346.354C1007.99 347.666 1009.11 348.729 1010.49 348.729Z" fill="#9871F5"/>
<path d="M993.005 249.21C994.389 249.21 995.51 248.146 995.51 246.834C995.51 245.523 994.389 244.459 993.005 244.459C991.621 244.459 990.5 245.523 990.5 246.834C990.5 248.146 991.621 249.21 993.005 249.21Z" fill="#9871F5"/>
<path d="M993.005 265.803C994.389 265.803 995.51 264.739 995.51 263.427C995.51 262.115 994.389 261.052 993.005 261.052C991.621 261.052 990.5 262.115 990.5 263.427C990.5 264.739 991.621 265.803 993.005 265.803Z" fill="#9871F5"/>
<path d="M993.005 282.383C994.389 282.383 995.51 281.32 995.51 280.008C995.51 278.696 994.389 277.632 993.005 277.632C991.621 277.632 990.5 278.696 990.5 280.008C990.5 281.32 991.621 282.383 993.005 282.383Z" fill="#9871F5"/>
<path d="M993.005 298.976C994.389 298.976 995.51 297.912 995.51 296.6C995.51 295.289 994.389 294.225 993.005 294.225C991.621 294.225 990.5 295.289 990.5 296.6C990.5 297.912 991.621 298.976 993.005 298.976Z" fill="#9871F5"/>
<path d="M993.005 315.556C994.389 315.556 995.51 314.492 995.51 313.181C995.51 311.869 994.389 310.805 993.005 310.805C991.621 310.805 990.5 311.869 990.5 313.181C990.5 314.492 991.621 315.556 993.005 315.556Z" fill="#9871F5"/>
<path d="M993.005 332.148C994.389 332.148 995.51 331.085 995.51 329.773C995.51 328.461 994.389 327.397 993.005 327.397C991.621 327.397 990.5 328.461 990.5 329.773C990.5 331.085 991.621 332.148 993.005 332.148Z" fill="#9871F5"/>
<path d="M993.005 348.729C994.389 348.729 995.51 347.666 995.51 346.354C995.51 345.042 994.389 343.979 993.005 343.979C991.621 343.979 990.5 345.042 990.5 346.354C990.5 347.666 991.621 348.729 993.005 348.729Z" fill="#9871F5"/>
<path d="M975.506 249.21C976.89 249.21 978.011 248.147 978.011 246.835C978.011 245.523 976.89 244.459 975.506 244.459C974.122 244.459 973.001 245.523 973.001 246.835C973.001 248.147 974.122 249.21 975.506 249.21Z" fill="#9871F5"/>
<path d="M975.505 265.803C976.889 265.803 978.01 264.739 978.01 263.427C978.01 262.115 976.889 261.052 975.505 261.052C974.122 261.052 973 262.115 973 263.427C973 264.739 974.122 265.803 975.505 265.803Z" fill="#9871F5"/>
<path d="M975.505 282.383C976.889 282.383 978.01 281.32 978.01 280.008C978.01 278.696 976.889 277.632 975.505 277.632C974.122 277.632 973 278.696 973 280.008C973 281.32 974.122 282.383 975.505 282.383Z" fill="#9871F5"/>
<path d="M975.505 298.976C976.889 298.976 978.01 297.912 978.01 296.6C978.01 295.289 976.889 294.225 975.505 294.225C974.122 294.225 973 295.289 973 296.6C973 297.912 974.122 298.976 975.505 298.976Z" fill="#9871F5"/>
<path d="M975.505 315.556C976.889 315.556 978.01 314.492 978.01 313.181C978.01 311.869 976.889 310.805 975.505 310.805C974.122 310.805 973 311.869 973 313.181C973 314.492 974.122 315.556 975.505 315.556Z" fill="#9871F5"/>
<path d="M975.505 332.148C976.889 332.148 978.01 331.085 978.01 329.773C978.01 328.461 976.889 327.397 975.505 327.397C974.122 327.397 973 328.461 973 329.773C973 331.085 974.122 332.148 975.505 332.148Z" fill="#9871F5"/>
<path d="M975.505 348.729C976.889 348.729 978.01 347.666 978.01 346.354C978.01 345.042 976.889 343.979 975.505 343.979C974.122 343.979 973 345.042 973 346.354C973 347.666 974.122 348.729 975.505 348.729Z" fill="#9871F5"/>
</svg>
