<svg width="588" height="667" viewBox="0 0 588 667" fill="none" xmlns="http://www.w3.org/2000/svg">
<path d="M500.569 661.405C495.526 661.405 491.437 657.339 491.437 652.324C491.437 647.308 495.526 643.243 500.569 643.243C505.612 643.243 509.701 647.308 509.701 652.324C509.701 657.323 505.612 661.405 500.569 661.405Z" stroke="#E3A052" stroke-width="3" stroke-miterlimit="10" stroke-linecap="round" stroke-linejoin="round"/>
<path d="M494.27 658.888L487.811 665.294" stroke="#E3A052" stroke-width="3" stroke-miterlimit="10" stroke-linecap="round" stroke-linejoin="round"/>
<path d="M329.216 2L319.609 11.5541" stroke="#E3A052" stroke-width="3" stroke-miterlimit="10" stroke-linecap="round" stroke-linejoin="round"/>
<path d="M329.216 11.5541L319.609 2" stroke="#E3A052" stroke-width="3" stroke-miterlimit="10" stroke-linecap="round" stroke-linejoin="round"/>
<path d="M315.461 576.763L305.854 586.317" stroke="#E3A052" stroke-width="3" stroke-miterlimit="10" stroke-linecap="round" stroke-linejoin="round"/>
<path d="M315.461 586.317L305.854 576.763" stroke="#E3A052" stroke-width="3" stroke-miterlimit="10" stroke-linecap="round" stroke-linejoin="round"/>
<path d="M15.4307 187.274L1.84405 187.274" stroke="#E3A052" stroke-width="3" stroke-miterlimit="10" stroke-linecap="round" stroke-linejoin="round"/>
<path d="M8.63867 194.046L8.63867 180.52" stroke="#E3A052" stroke-width="3" stroke-miterlimit="10" stroke-linecap="round" stroke-linejoin="round"/>
<path d="M412.866 138.422C408.316 138.422 404.609 134.752 404.609 130.211C404.609 125.686 408.3 122 412.866 122C417.416 122 421.123 125.67 421.123 130.211C421.107 134.752 417.416 138.422 412.866 138.422Z" stroke="#E3A052" stroke-width="3" stroke-miterlimit="10" stroke-linecap="round" stroke-linejoin="round"/>
<path d="M577.743 345.169C573.193 345.169 569.486 341.499 569.486 336.958C569.486 332.434 573.177 328.747 577.743 328.747C582.293 328.747 586 332.418 586 336.958C585.984 341.499 582.293 345.169 577.743 345.169Z" stroke="#E3A052" stroke-width="3" stroke-miterlimit="10" stroke-linecap="round" stroke-linejoin="round"/>
<path d="M58.5916 471.906C54.0416 471.906 50.3347 468.236 50.3347 463.695C50.3347 459.17 54.0256 455.484 58.5916 455.484C63.1417 455.484 66.8486 459.155 66.8486 463.695C66.8327 468.236 63.1417 471.906 58.5916 471.906Z" stroke="#E3A052" stroke-width="3" stroke-miterlimit="10" stroke-linecap="round" stroke-linejoin="round"/>
<path d="M157.224 23.2467C157.224 24.8891 158.563 26.2205 160.214 26.2205C161.866 26.2205 163.205 24.8891 163.205 23.2467C163.205 21.6044 161.866 20.2729 160.214 20.2729C158.563 20.2729 157.224 21.6044 157.224 23.2467Z" fill="#B7B3F8"/>
<path d="M157.224 44.0199C157.224 45.6623 158.563 46.9937 160.214 46.9937C161.866 46.9937 163.205 45.6623 163.205 44.0199C163.205 42.3776 161.866 41.0461 160.214 41.0461C158.563 41.0461 157.224 42.3776 157.224 44.0199Z" fill="#B7B3F8"/>
<path d="M157.224 64.7744C157.224 66.4168 158.563 67.7482 160.214 67.7482C161.866 67.7482 163.205 66.4168 163.205 64.7744C163.205 63.1321 161.866 61.8007 160.214 61.8007C158.563 61.8007 157.224 63.1321 157.224 64.7744Z" fill="#B7B3F8"/>
<path d="M157.224 85.5447C157.224 87.1871 158.563 88.5185 160.214 88.5185C161.866 88.5185 163.205 87.1871 163.205 85.5447C163.205 83.9023 161.866 82.5709 160.214 82.5709C158.563 82.5709 157.224 83.9023 157.224 85.5447Z" fill="#B7B3F8"/>
<path d="M157.224 106.301C157.224 107.943 158.563 109.275 160.214 109.275C161.866 109.275 163.205 107.943 163.205 106.301C163.205 104.659 161.866 103.327 160.214 103.327C158.563 103.327 157.224 104.659 157.224 106.301Z" fill="#B7B3F8"/>
<path d="M157.224 127.071C157.224 128.714 158.563 130.045 160.214 130.045C161.866 130.045 163.205 128.714 163.205 127.071C163.205 125.429 161.866 124.098 160.214 124.098C158.563 124.098 157.224 125.429 157.224 127.071Z" fill="#B7B3F8"/>
<path d="M136.35 23.247C136.35 24.8894 137.689 26.2208 139.341 26.2208C140.992 26.2208 142.331 24.8894 142.331 23.247C142.331 21.6046 140.992 20.2732 139.341 20.2732C137.689 20.2732 136.35 21.6046 136.35 23.247Z" fill="#B7B3F8"/>
<path d="M136.35 44.0199C136.35 45.6623 137.689 46.9937 139.341 46.9937C140.992 46.9937 142.331 45.6623 142.331 44.0199C142.331 42.3776 140.992 41.0461 139.341 41.0461C137.689 41.0461 136.35 42.3776 136.35 44.0199Z" fill="#B7B3F8"/>
<path d="M136.35 64.7744C136.35 66.4168 137.689 67.7482 139.341 67.7482C140.992 67.7482 142.331 66.4168 142.331 64.7744C142.331 63.1321 140.992 61.8007 139.341 61.8007C137.689 61.8007 136.35 63.1321 136.35 64.7744Z" fill="#B7B3F8"/>
<path d="M136.35 85.5447C136.35 87.1871 137.689 88.5185 139.341 88.5185C140.992 88.5185 142.331 87.1871 142.331 85.5447C142.331 83.9023 140.992 82.5709 139.341 82.5709C137.689 82.5709 136.35 83.9023 136.35 85.5447Z" fill="#B7B3F8"/>
<path d="M136.35 106.301C136.35 107.943 137.689 109.275 139.341 109.275C140.992 109.275 142.331 107.943 142.331 106.301C142.331 104.659 140.992 103.327 139.341 103.327C137.689 103.327 136.35 104.659 136.35 106.301Z" fill="#B7B3F8"/>
<path d="M136.35 127.071C136.35 128.714 137.689 130.045 139.341 130.045C140.992 130.045 142.331 128.714 142.331 127.071C142.331 125.429 140.992 124.098 139.341 124.098C137.689 124.098 136.35 125.429 136.35 127.071Z" fill="#B7B3F8"/>
<path d="M115.461 23.247C115.461 24.8894 116.8 26.2208 118.452 26.2208C120.104 26.2208 121.442 24.8894 121.442 23.247C121.442 21.6046 120.104 20.2732 118.452 20.2732C116.8 20.2732 115.461 21.6046 115.461 23.247Z" fill="#B7B3F8"/>
<path d="M115.461 44.0199C115.461 45.6623 116.8 46.9937 118.452 46.9937C120.104 46.9937 121.442 45.6623 121.442 44.0199C121.442 42.3776 120.104 41.0461 118.452 41.0461C116.8 41.0461 115.461 42.3776 115.461 44.0199Z" fill="#B7B3F8"/>
<path d="M115.461 64.7744C115.461 66.4168 116.8 67.7482 118.452 67.7482C120.104 67.7482 121.442 66.4168 121.442 64.7744C121.442 63.1321 120.104 61.8007 118.452 61.8007C116.8 61.8007 115.461 63.1321 115.461 64.7744Z" fill="#B7B3F8"/>
<path d="M115.461 85.5447C115.461 87.1871 116.8 88.5185 118.452 88.5185C120.104 88.5185 121.442 87.1871 121.442 85.5447C121.442 83.9023 120.104 82.5709 118.452 82.5709C116.8 82.5709 115.461 83.9023 115.461 85.5447Z" fill="#B7B3F8"/>
<path d="M115.461 106.301C115.461 107.943 116.8 109.275 118.452 109.275C120.104 109.275 121.442 107.943 121.442 106.301C121.442 104.659 120.104 103.327 118.452 103.327C116.8 103.327 115.461 104.659 115.461 106.301Z" fill="#B7B3F8"/>
<path d="M115.461 127.071C115.461 128.714 116.8 130.045 118.452 130.045C120.104 130.045 121.442 128.714 121.442 127.071C121.442 125.429 120.104 124.098 118.452 124.098C116.8 124.098 115.461 125.429 115.461 127.071Z" fill="#B7B3F8"/>
<path d="M94.5884 23.247C94.5884 24.8894 95.9273 26.2208 97.5789 26.2208C99.2305 26.2208 100.569 24.8894 100.569 23.247C100.569 21.6046 99.2305 20.2732 97.5789 20.2732C95.9273 20.2732 94.5884 21.6046 94.5884 23.247Z" fill="#B7B3F8"/>
<path d="M94.5884 44.0199C94.5884 45.6623 95.9273 46.9937 97.5789 46.9937C99.2305 46.9937 100.569 45.6623 100.569 44.0199C100.569 42.3776 99.2305 41.0461 97.5789 41.0461C95.9273 41.0461 94.5884 42.3776 94.5884 44.0199Z" fill="#B7B3F8"/>
<path d="M94.5884 64.7744C94.5884 66.4168 95.9273 67.7482 97.5789 67.7482C99.2305 67.7482 100.569 66.4168 100.569 64.7744C100.569 63.1321 99.2305 61.8007 97.5789 61.8007C95.9273 61.8007 94.5884 63.1321 94.5884 64.7744Z" fill="#B7B3F8"/>
<path d="M94.5884 85.5447C94.5884 87.1871 95.9273 88.5185 97.5789 88.5185C99.2305 88.5185 100.569 87.1871 100.569 85.5447C100.569 83.9023 99.2305 82.5709 97.5789 82.5709C95.9273 82.5709 94.5884 83.9023 94.5884 85.5447Z" fill="#B7B3F8"/>
<path d="M94.5884 106.301C94.5884 107.943 95.9273 109.275 97.5789 109.275C99.2305 109.275 100.569 107.943 100.569 106.301C100.569 104.659 99.2305 103.327 97.5789 103.327C95.9273 103.327 94.5884 104.659 94.5884 106.301Z" fill="#B7B3F8"/>
<path d="M94.5884 127.071C94.5884 128.714 95.9273 130.045 97.5789 130.045C99.2305 130.045 100.569 128.714 100.569 127.071C100.569 125.429 99.2305 124.098 97.5789 124.098C95.9273 124.098 94.5884 125.429 94.5884 127.071Z" fill="#B7B3F8"/>
<path d="M497.788 477.706C497.788 479.348 499.127 480.679 500.779 480.679C502.43 480.679 503.769 479.348 503.769 477.706C503.769 476.063 502.43 474.732 500.779 474.732C499.127 474.732 497.788 476.063 497.788 477.706Z" fill="#B7B3F8"/>
<path d="M497.789 498.46C497.789 500.103 499.128 501.434 500.78 501.434C502.431 501.434 503.77 500.103 503.77 498.46C503.77 496.818 502.431 495.487 500.78 495.487C499.128 495.487 497.789 496.818 497.789 498.46Z" fill="#B7B3F8"/>
<path d="M497.789 519.23C497.789 520.872 499.128 522.204 500.78 522.204C502.431 522.204 503.77 520.872 503.77 519.23C503.77 517.588 502.431 516.256 500.78 516.256C499.128 516.256 497.789 517.588 497.789 519.23Z" fill="#B7B3F8"/>
<path d="M476.9 477.703C476.9 479.346 478.239 480.677 479.89 480.677C481.542 480.677 482.881 479.346 482.881 477.703C482.881 476.061 481.542 474.73 479.89 474.73C478.239 474.73 476.9 476.061 476.9 477.703Z" fill="#B7B3F8"/>
<path d="M476.9 498.46C476.9 500.103 478.239 501.434 479.89 501.434C481.542 501.434 482.881 500.103 482.881 498.46C482.881 496.818 481.542 495.487 479.89 495.487C478.239 495.487 476.9 496.818 476.9 498.46Z" fill="#B7B3F8"/>
<path d="M476.9 519.228C476.9 520.871 478.239 522.202 479.89 522.202C481.542 522.202 482.881 520.871 482.881 519.228C482.881 517.586 481.542 516.255 479.89 516.255C478.239 516.255 476.9 517.586 476.9 519.228Z" fill="#B7B3F8"/>
<path d="M571.498 111.974C571.498 113.617 572.836 114.948 574.488 114.948C576.14 114.948 577.479 113.617 577.479 111.974C577.479 110.332 576.14 109.001 574.488 109.001C572.836 109.001 571.498 110.332 571.498 111.974Z" fill="#B7B3F8"/>
<path d="M571.498 132.728C571.498 134.37 572.837 135.702 574.489 135.702C576.14 135.702 577.479 134.37 577.479 132.728C577.479 131.086 576.14 129.754 574.489 129.754C572.837 129.754 571.498 131.086 571.498 132.728Z" fill="#B7B3F8"/>
<path d="M571.498 153.5C571.498 155.143 572.837 156.474 574.489 156.474C576.14 156.474 577.479 155.143 577.479 153.5C577.479 151.858 576.14 150.527 574.489 150.527C572.837 150.527 571.498 151.858 571.498 153.5Z" fill="#B7B3F8"/>
<path d="M550.609 111.974C550.609 113.616 551.948 114.948 553.599 114.948C555.251 114.948 556.59 113.616 556.59 111.974C556.59 110.331 555.251 109 553.599 109C551.948 109 550.609 110.331 550.609 111.974Z" fill="#B7B3F8"/>
<path d="M550.609 132.73C550.609 134.372 551.948 135.704 553.599 135.704C555.251 135.704 556.59 134.372 556.59 132.73C556.59 131.088 555.251 129.756 553.599 129.756C551.948 129.756 550.609 131.088 550.609 132.73Z" fill="#B7B3F8"/>
<path d="M550.609 153.5C550.609 155.143 551.948 156.474 553.599 156.474C555.251 156.474 556.59 155.143 556.59 153.5C556.59 151.858 555.251 150.526 553.599 150.526C551.948 150.526 550.609 151.858 550.609 153.5Z" fill="#B7B3F8"/>
<path d="M164.71 662.983C164.71 664.626 166.049 665.957 167.701 665.957C169.353 665.957 170.691 664.626 170.691 662.983C170.691 661.341 169.353 660.01 167.701 660.01C166.049 660.01 164.71 661.341 164.71 662.983Z" fill="#B7B3F8"/>
<path d="M143.821 662.983C143.821 664.626 145.16 665.957 146.812 665.957C148.463 665.957 149.802 664.626 149.802 662.983C149.802 661.341 148.463 660.01 146.812 660.01C145.16 660.01 143.821 661.341 143.821 662.983Z" fill="#B7B3F8"/>
<path d="M122.948 662.983C122.948 664.626 124.287 665.957 125.939 665.957C127.59 665.957 128.929 664.626 128.929 662.983C128.929 661.341 127.59 660.01 125.939 660.01C124.287 660.01 122.948 661.341 122.948 662.983Z" fill="#B7B3F8"/>
<path d="M102.059 662.983C102.059 664.626 103.398 665.957 105.05 665.957C106.701 665.957 108.04 664.626 108.04 662.983C108.04 661.341 106.701 660.01 105.05 660.01C103.398 660.01 102.059 661.341 102.059 662.983Z" fill="#B7B3F8"/>
<path d="M81.1861 662.983C81.1861 664.626 82.5249 665.957 84.1765 665.957C85.8281 665.957 87.167 664.626 87.167 662.983C87.167 661.341 85.8281 660.01 84.1765 660.01C82.5249 660.01 81.1861 661.341 81.1861 662.983Z" fill="#B7B3F8"/>
<path d="M60.2969 662.983C60.2969 664.626 61.6358 665.957 63.2874 665.957C64.939 665.957 66.2778 664.626 66.2778 662.983C66.2778 661.341 64.939 660.01 63.2874 660.01C61.6358 660.01 60.2969 661.341 60.2969 662.983Z" fill="#B7B3F8"/>
<path d="M39.4239 662.983C39.4239 664.626 40.7627 665.957 42.4143 665.957C44.0659 665.957 45.4048 664.626 45.4048 662.983C45.4048 661.341 44.0659 660.01 42.4143 660.01C40.7627 660.01 39.4239 661.341 39.4239 662.983Z" fill="#B7B3F8"/>
<path d="M164.71 642.212C164.71 643.854 166.049 645.186 167.701 645.186C169.353 645.186 170.691 643.854 170.691 642.212C170.691 640.57 169.353 639.238 167.701 639.238C166.049 639.238 164.71 640.57 164.71 642.212Z" fill="#B7B3F8"/>
<path d="M143.821 642.212C143.821 643.854 145.16 645.186 146.812 645.186C148.463 645.186 149.802 643.854 149.802 642.212C149.802 640.57 148.463 639.238 146.812 639.238C145.16 639.238 143.821 640.57 143.821 642.212Z" fill="#B7B3F8"/>
<path d="M122.948 642.212C122.948 643.854 124.287 645.186 125.939 645.186C127.59 645.186 128.929 643.854 128.929 642.212C128.929 640.57 127.59 639.238 125.939 639.238C124.287 639.238 122.948 640.57 122.948 642.212Z" fill="#B7B3F8"/>
<path d="M102.059 642.212C102.059 643.854 103.398 645.186 105.05 645.186C106.701 645.186 108.04 643.854 108.04 642.212C108.04 640.57 106.701 639.238 105.05 639.238C103.398 639.238 102.059 640.57 102.059 642.212Z" fill="#B7B3F8"/>
<path d="M81.1861 642.212C81.1861 643.854 82.5249 645.186 84.1765 645.186C85.8281 645.186 87.167 643.854 87.167 642.212C87.167 640.57 85.8281 639.238 84.1765 639.238C82.5249 639.238 81.1861 640.57 81.1861 642.212Z" fill="#B7B3F8"/>
<path d="M60.2969 642.212C60.2969 643.854 61.6358 645.186 63.2874 645.186C64.939 645.186 66.2778 643.854 66.2778 642.212C66.2778 640.57 64.939 639.238 63.2874 639.238C61.6358 639.238 60.2969 640.57 60.2969 642.212Z" fill="#B7B3F8"/>
<path d="M39.4239 642.212C39.4239 643.854 40.7627 645.186 42.4143 645.186C44.0659 645.186 45.4048 643.854 45.4048 642.212C45.4048 640.57 44.0659 639.238 42.4143 639.238C40.7627 639.238 39.4239 640.57 39.4239 642.212Z" fill="#B7B3F8"/>
<path d="M164.71 621.456C164.71 623.098 166.049 624.43 167.701 624.43C169.353 624.43 170.691 623.098 170.691 621.456C170.691 619.814 169.353 618.482 167.701 618.482C166.049 618.482 164.71 619.814 164.71 621.456Z" fill="#B7B3F8"/>
<path d="M143.821 621.456C143.821 623.098 145.16 624.43 146.812 624.43C148.463 624.43 149.802 623.098 149.802 621.456C149.802 619.814 148.463 618.482 146.812 618.482C145.16 618.482 143.821 619.814 143.821 621.456Z" fill="#B7B3F8"/>
<path d="M122.948 621.456C122.948 623.098 124.287 624.43 125.939 624.43C127.59 624.43 128.929 623.098 128.929 621.456C128.929 619.814 127.59 618.482 125.939 618.482C124.287 618.482 122.948 619.814 122.948 621.456Z" fill="#B7B3F8"/>
<path d="M102.059 621.456C102.059 623.098 103.398 624.43 105.05 624.43C106.701 624.43 108.04 623.098 108.04 621.456C108.04 619.814 106.701 618.482 105.05 618.482C103.398 618.482 102.059 619.814 102.059 621.456Z" fill="#B7B3F8"/>
<path d="M81.1861 621.456C81.1861 623.098 82.5249 624.43 84.1765 624.43C85.8281 624.43 87.167 623.098 87.167 621.456C87.167 619.814 85.8281 618.482 84.1765 618.482C82.5249 618.482 81.1861 619.814 81.1861 621.456Z" fill="#B7B3F8"/>
<path d="M60.2969 621.456C60.2969 623.098 61.6358 624.43 63.2874 624.43C64.939 624.43 66.2778 623.098 66.2778 621.456C66.2778 619.814 64.939 618.482 63.2874 618.482C61.6358 618.482 60.2969 619.814 60.2969 621.456Z" fill="#B7B3F8"/>
<path d="M39.4239 621.456C39.4239 623.098 40.7627 624.43 42.4143 624.43C44.0659 624.43 45.4048 623.098 45.4048 621.456C45.4048 619.814 44.0659 618.482 42.4143 618.482C40.7627 618.482 39.4239 619.814 39.4239 621.456Z" fill="#B7B3F8"/>
<path d="M164.709 600.686C164.709 602.328 166.047 603.66 167.699 603.66C169.351 603.66 170.689 602.328 170.689 600.686C170.689 599.043 169.351 597.712 167.699 597.712C166.047 597.712 164.709 599.043 164.709 600.686Z" fill="#B7B3F8"/>
<path d="M143.821 600.685C143.821 602.328 145.16 603.659 146.812 603.659C148.463 603.659 149.802 602.328 149.802 600.685C149.802 599.043 148.463 597.712 146.812 597.712C145.16 597.712 143.821 599.043 143.821 600.685Z" fill="#B7B3F8"/>
<path d="M122.948 600.685C122.948 602.328 124.287 603.659 125.939 603.659C127.59 603.659 128.929 602.328 128.929 600.685C128.929 599.043 127.59 597.712 125.939 597.712C124.287 597.712 122.948 599.043 122.948 600.685Z" fill="#B7B3F8"/>
<path d="M102.059 600.685C102.059 602.328 103.398 603.659 105.05 603.659C106.701 603.659 108.04 602.328 108.04 600.685C108.04 599.043 106.701 597.712 105.05 597.712C103.398 597.712 102.059 599.043 102.059 600.685Z" fill="#B7B3F8"/>
<path d="M81.1861 600.685C81.1861 602.328 82.5249 603.659 84.1765 603.659C85.8281 603.659 87.167 602.328 87.167 600.685C87.167 599.043 85.8281 597.712 84.1765 597.712C82.5249 597.712 81.1861 599.043 81.1861 600.685Z" fill="#B7B3F8"/>
<path d="M60.2969 600.685C60.2969 602.328 61.6358 603.659 63.2874 603.659C64.939 603.659 66.2778 602.328 66.2778 600.685C66.2778 599.043 64.939 597.712 63.2874 597.712C61.6358 597.712 60.2969 599.043 60.2969 600.685Z" fill="#B7B3F8"/>
<path d="M39.4239 600.685C39.4239 602.328 40.7627 603.659 42.4143 603.659C44.0659 603.659 45.4048 602.328 45.4048 600.685C45.4048 599.043 44.0659 597.712 42.4143 597.712C40.7627 597.712 39.4239 599.043 39.4239 600.685Z" fill="#B7B3F8"/>
</svg>
